<?xml version="1.0" standalone="no"?>
<!DOCTYPE svg PUBLIC "-//W3C//DTD SVG 20010904//EN"
 "http://www.w3.org/TR/2001/REC-SVG-20010904/DTD/svg10.dtd">
<svg version="1.0" xmlns="http://www.w3.org/2000/svg"
 width="700.000000pt" height="700.000000pt" viewBox="0 0 700.000000 700.000000"
 preserveAspectRatio="xMidYMid meet">
<metadata>
Created by potrace 1.14, written by Peter Selinger 2001-2017
</metadata>
<g transform="translate(0.000000,700.000000) scale(0.100000,-0.100000)"
fill="#000000" stroke="none">
<path d="M2008 4625 c-505 -80 -842 -474 -876 -1025 -36 -598 215 -1034 689
-1195 203 -69 490 -76 704 -16 308 86 536 309 620 608 32 114 42 220 41 428
l-1 170 -414 0 -414 0 -28 -80 c-16 -44 -45 -127 -65 -185 -20 -58 -39 -111
-42 -118 -4 -10 12 -13 69 -12 41 1 141 1 223 1 l149 -1 -7 -52 c-14 -105 -77
-205 -163 -255 -103 -60 -279 -85 -409 -58 -268 57 -418 323 -400 710 17 388
207 615 513 615 192 0 318 -69 388 -213 l34 -72 267 0 c206 1 269 4 272 13 7
22 -30 155 -64 230 -110 241 -328 412 -623 489 -119 31 -329 39 -463 18z"/>
<path d="M3765 4540 l-260 -66 -3 -1047 c-1 -612 2 -1047 7 -1047 5 0 123 29
263 65 140 36 258 65 261 65 4 0 7 473 7 1050 0 578 -3 1049 -7 1049 -5 -1
-125 -32 -268 -69z"/>
<path d="M4378 4603 c0 -5 -2 -506 -3 -1115 -1 -722 2 -1108 8 -1108 6 0 129
30 273 66 l264 67 0 378 0 379 373 0 373 0 67 217 c39 124 64 219 58 222 -5 3
-203 6 -440 6 l-431 0 0 226 0 226 412 -1 c260 -1 416 3 424 9 7 6 40 96 72
200 33 105 62 200 66 213 l7 22 -760 0 c-419 0 -762 -3 -763 -7z"/>
</g>
</svg>
